<svg width="64" height="64" viewBox="0 0 64 64" fill="none" xmlns="http://www.w3.org/2000/svg">
  <rect width="64" height="64" rx="18" fill="#2F6BFF"/>
  <path d="M20 21.5C20 19.567 21.567 18 23.5 18H41.5C43.433 18 45 19.567 45 21.5V42.5C45 44.433 43.433 46 41.5 46H23.5C21.567 46 20 44.433 20 42.5V21.5Z" fill="#EAF2FF"/>
  <path d="M27 26.5C27 24.567 28.567 23 30.5 23H40V41H30.5C28.567 41 27 39.433 27 37.5V26.5Z" fill="#2F6BFF"/>
  <path d="M24 27.5C24 25.567 25.567 24 27.5 24H37V42H27.5C25.567 42 24 40.433 24 38.5V27.5Z" stroke="#2F6BFF" stroke-width="2.5"/>
</svg>
